<svg id="svg" version="1.1" xmlns="http://www.w3.org/2000/svg" xmlns:xlink="http://www.w3.org/1999/xlink" width="400" height="399.64476021314385"><g id="svgg"><path id="path0" d="M96.270 194.849 L 96.270 355.950 201.243 355.950 L 306.217 355.950 306.217 194.849 L 306.217 33.748 201.243 33.748 L 96.270 33.748 96.270 194.849 M124.334 51.155 L 124.334 54.707 127.709 54.707 L 131.083 54.707 131.083 68.739 L 131.083 82.771 127.709 82.771 L 124.334 82.771 124.334 75.666 L 124.334 68.561 120.782 68.561 L 117.229 68.561 117.229 75.666 L 117.229 82.771 113.677 82.771 L 110.124 82.771 110.124 68.739 L 110.124 54.707 113.677 54.707 L 117.229 54.707 117.229 51.155 L 117.229 47.602 120.782 47.602 L 124.334 47.602 124.334 51.155 M117.229 58.259 L 117.229 61.812 120.782 61.812 L 124.334 61.812 124.334 58.259 L 124.334 54.707 120.782 54.707 L 117.229 54.707 117.229 58.259 M204.618 122.913 L 204.618 124.689 206.394 124.689 L 208.171 124.689 208.171 126.465 L 208.171 128.242 209.947 128.242 L 211.723 128.242 211.723 130.018 L 211.723 131.794 213.499 131.794 L 215.275 131.794 215.275 133.570 L 215.275 135.346 217.052 135.346 L 218.828 135.346 218.828 137.123 L 218.828 138.899 220.604 138.899 L 222.380 138.899 222.380 140.497 L 222.380 142.096 224.156 142.096 L 225.933 142.096 225.933 143.872 L 225.933 145.648 227.709 145.648 L 229.485 145.648 229.485 147.425 L 229.485 149.201 231.083 149.201 L 232.682 149.201 232.682 150.977 L 232.682 152.753 234.458 152.753 L 236.234 152.753 236.234 154.529 L 236.234 156.306 238.011 156.306 L 239.787 156.306 239.787 158.082 L 239.787 159.858 241.563 159.858 L 243.339 159.858 243.339 161.634 L 243.339 163.410 245.115 163.410 L 246.892 163.410 246.892 165.187 L 246.892 166.963 248.668 166.963 L 250.444 166.963 250.444 168.561 L 250.444 170.160 252.220 170.160 L 253.996 170.160 253.996 171.936 L 253.996 173.712 255.595 173.712 L 257.194 173.712 257.194 175.488 L 257.194 177.265 258.970 177.265 L 260.746 177.265 260.746 180.817 L 260.746 184.369 262.522 184.369 L 264.298 184.369 264.298 196.625 L 264.298 208.881 262.522 208.881 L 260.746 208.881 260.746 212.433 L 260.746 215.986 258.970 215.986 L 257.194 215.986 257.194 217.584 L 257.194 219.183 255.595 219.183 L 253.996 219.183 253.996 220.959 L 253.996 222.735 250.444 222.735 L 246.892 222.735 246.892 224.512 L 246.892 226.288 243.339 226.288 L 239.787 226.288 239.787 228.064 L 239.787 229.840 227.531 229.840 L 215.275 229.840 215.275 228.064 L 215.275 226.288 211.723 226.288 L 208.171 226.288 208.171 224.512 L 208.171 222.735 206.394 222.735 L 204.618 222.735 204.618 236.767 L 204.618 250.799 206.394 250.799 L 208.171 250.799 208.171 254.352 L 208.171 257.904 209.947 257.904 L 211.723 257.904 211.723 259.680 L 211.723 261.456 213.499 261.456 L 215.275 261.456 215.275 263.233 L 215.275 265.009 217.052 265.009 L 218.828 265.009 218.828 266.607 L 218.828 268.206 222.380 268.206 L 225.933 268.206 225.933 269.982 L 225.933 271.758 201.421 271.758 L 176.909 271.758 176.909 269.982 L 176.909 268.206 180.284 268.206 L 183.659 268.206 183.659 266.607 L 183.659 265.009 185.435 265.009 L 187.211 265.009 187.211 263.233 L 187.211 261.456 188.988 261.456 L 190.764 261.456 190.764 259.680 L 190.764 257.904 192.540 257.904 L 194.316 257.904 194.316 254.352 L 194.316 250.799 196.092 250.799 L 197.869 250.799 197.869 236.767 L 197.869 222.735 196.092 222.735 L 194.316 222.735 194.316 224.512 L 194.316 226.288 190.764 226.288 L 187.211 226.288 187.211 228.064 L 187.211 229.840 174.956 229.840 L 162.700 229.840 162.700 228.064 L 162.700 226.288 159.147 226.288 L 155.595 226.288 155.595 224.512 L 155.595 222.735 152.220 222.735 L 148.845 222.735 148.845 220.959 L 148.845 219.183 147.069 219.183 L 145.293 219.183 145.293 217.584 L 145.293 215.986 143.517 215.986 L 141.741 215.986 141.741 212.433 L 141.741 208.881 139.964 208.881 L 138.188 208.881 138.188 196.625 L 138.188 184.369 139.964 184.369 L 141.741 184.369 141.741 180.817 L 141.741 177.265 143.517 177.265 L 145.293 177.265 145.293 175.488 L 145.293 173.712 147.069 173.712 L 148.845 173.712 148.845 171.936 L 148.845 170.160 150.622 170.160 L 152.398 170.160 152.398 168.561 L 152.398 166.963 153.996 166.963 L 155.595 166.963 155.595 165.187 L 155.595 163.410 157.371 163.410 L 159.147 163.410 159.147 161.634 L 159.147 159.858 160.924 159.858 L 162.700 159.858 162.700 158.082 L 162.700 156.306 164.476 156.306 L 166.252 156.306 166.252 154.529 L 166.252 152.753 168.028 152.753 L 169.805 152.753 169.805 150.977 L 169.805 149.201 171.581 149.201 L 173.357 149.201 173.357 147.425 L 173.357 145.648 175.133 145.648 L 176.909 145.648 176.909 143.872 L 176.909 142.096 178.508 142.096 L 180.107 142.096 180.107 140.497 L 180.107 138.899 181.883 138.899 L 183.659 138.899 183.659 137.123 L 183.659 135.346 185.435 135.346 L 187.211 135.346 187.211 133.570 L 187.211 131.794 188.988 131.794 L 190.764 131.794 190.764 130.018 L 190.764 128.242 192.540 128.242 L 194.316 128.242 194.316 126.465 L 194.316 124.689 196.092 124.689 L 197.869 124.689 197.869 122.913 L 197.869 121.137 201.243 121.137 L 204.618 121.137 204.618 122.913 M278.508 313.854 L 278.508 320.782 281.883 320.782 L 285.258 320.782 285.258 313.854 L 285.258 306.927 288.810 306.927 L 292.362 306.927 292.362 320.959 L 292.362 334.991 288.810 334.991 L 285.258 334.991 285.258 338.544 L 285.258 342.096 281.883 342.096 L 278.508 342.096 278.508 338.544 L 278.508 334.991 274.956 334.991 L 271.403 334.991 271.403 320.959 L 271.403 306.927 274.956 306.927 L 278.508 306.927 278.508 313.854 M278.508 331.439 L 278.508 334.991 281.883 334.991 L 285.258 334.991 285.258 331.439 L 285.258 327.886 281.883 327.886 L 278.508 327.886 278.508 331.439 " stroke="none" fill="#fcfcfc" fill-rule="evenodd"></path><path id="path1" d="M165.019 3.220 C 164.245 5.086,163.515 6.373,163.281 6.282 C 163.059 6.196,161.632 5.601,160.109 4.961 C 156.804 3.570,157.333 3.076,154.384 10.302 C 153.068 13.526,151.763 16.667,151.484 17.283 C 151.205 17.898,150.977 18.500,150.977 18.619 C 150.977 18.738,150.667 19.513,150.289 20.341 C 149.911 21.170,149.345 22.487,149.031 23.268 C 148.718 24.050,148.269 25.129,148.034 25.666 L 147.606 26.643 121.938 26.643 L 96.270 26.643 96.270 30.195 L 96.270 33.748 92.718 33.748 L 89.165 33.748 89.165 77.818 C 89.165 104.928,89.038 121.811,88.834 121.685 C 88.653 121.572,88.402 121.645,88.277 121.847 C 88.152 122.049,87.902 122.122,87.720 122.010 C 87.538 121.897,87.389 121.975,87.389 122.182 C 87.389 122.388,87.220 122.558,87.014 122.558 C 86.808 122.558,85.969 122.854,85.149 123.216 C 83.448 123.967,82.357 124.417,81.972 124.525 C 81.825 124.567,81.585 124.639,81.439 124.687 C 81.292 124.734,81.052 124.754,80.906 124.731 C 80.759 124.708,80.639 124.849,80.639 125.044 C 80.639 125.240,80.440 125.405,80.195 125.412 C 79.951 125.418,79.112 125.733,78.330 126.110 C 77.549 126.488,76.800 126.802,76.666 126.809 C 76.532 126.815,75.973 127.007,75.423 127.235 C 74.873 127.463,74.303 127.683,74.156 127.723 C 74.010 127.764,73.810 127.837,73.712 127.886 C 73.615 127.935,73.415 128.006,73.268 128.044 C 73.122 128.081,72.093 128.541,70.982 129.065 C 69.871 129.589,68.832 130.019,68.673 130.020 C 68.514 130.021,67.939 130.254,67.395 130.538 C 66.720 130.890,66.475 130.917,66.622 130.624 C 66.741 130.388,66.588 130.503,66.282 130.880 C 65.977 131.256,65.623 131.461,65.497 131.334 C 65.370 131.208,64.849 131.397,64.339 131.755 C 63.828 132.113,62.771 132.609,61.989 132.857 C 61.208 133.105,60.369 133.466,60.124 133.660 C 59.880 133.854,59.680 133.893,59.680 133.748 C 59.680 133.602,59.466 133.661,59.204 133.879 C 58.941 134.096,58.622 134.169,58.493 134.041 C 58.365 133.912,58.259 133.993,58.259 134.221 C 58.259 134.449,58.060 134.637,57.815 134.638 C 57.571 134.639,56.947 134.862,56.429 135.132 C 55.910 135.403,54.871 135.822,54.120 136.064 C 53.368 136.306,52.553 136.663,52.309 136.857 C 52.065 137.051,51.865 137.115,51.865 136.998 C 51.865 136.882,51.144 137.170,50.264 137.639 C 49.383 138.107,48.064 138.683,47.333 138.918 C 46.602 139.154,45.831 139.482,45.620 139.648 C 45.410 139.814,44.928 139.998,44.550 140.055 C 44.172 140.113,43.175 140.519,42.334 140.957 C 41.494 141.395,40.656 141.661,40.474 141.549 C 40.291 141.436,40.142 141.513,40.142 141.720 C 40.142 141.927,39.993 142.096,39.810 142.096 C 39.627 142.096,39.028 142.282,38.478 142.509 C 37.928 142.735,37.358 142.895,37.211 142.864 C 37.065 142.832,36.945 142.983,36.945 143.200 C 36.945 143.416,36.705 143.501,36.412 143.388 C 36.119 143.276,35.879 143.301,35.879 143.444 C 35.879 143.666,33.325 144.938,32.880 144.938 C 32.797 144.938,32.278 145.124,31.728 145.352 C 31.178 145.580,30.608 145.800,30.462 145.841 C 30.315 145.881,30.115 145.955,30.018 146.004 C 29.920 146.052,29.720 146.123,29.574 146.161 C 29.427 146.198,28.398 146.658,27.287 147.182 C 26.176 147.706,25.188 148.135,25.090 148.135 C 24.993 148.135,24.463 148.321,23.913 148.549 C 23.363 148.777,22.833 148.981,22.735 149.003 C 22.638 149.025,21.619 149.478,20.472 150.010 C 19.325 150.542,18.336 150.977,18.275 150.977 C 18.214 150.977,17.713 151.163,17.163 151.391 C 16.613 151.619,16.044 151.839,15.897 151.880 C 15.750 151.920,15.511 151.993,15.364 152.040 C 15.218 152.088,14.978 152.108,14.831 152.085 C 14.685 152.062,14.565 152.202,14.565 152.398 C 14.565 152.593,14.281 152.753,13.933 152.753 C 13.586 152.753,12.946 153.002,12.512 153.307 C 12.077 153.611,11.562 153.761,11.367 153.641 C 11.172 153.520,11.012 153.591,11.012 153.798 C 11.012 154.005,10.863 154.174,10.680 154.174 C 10.498 154.174,9.898 154.360,9.348 154.588 C 8.798 154.816,8.228 155.036,8.082 155.077 C 7.935 155.118,7.695 155.190,7.549 155.237 C 7.402 155.285,7.163 155.305,7.016 155.282 C 6.869 155.259,6.750 155.382,6.750 155.557 C 6.750 155.857,5.070 156.479,4.551 156.371 C 3.921 156.240,3.935 157.864,4.577 159.315 C 4.969 160.200,5.178 160.926,5.042 160.929 C 4.907 160.932,4.959 161.052,5.158 161.195 C 5.970 161.780,6.381 163.334,5.842 163.782 C 5.559 164.016,5.329 164.089,5.329 163.943 C 5.329 163.798,5.114 163.857,4.852 164.074 C 4.590 164.292,4.270 164.365,4.141 164.236 C 4.013 164.108,3.908 164.189,3.908 164.417 C 3.908 164.645,3.739 164.831,3.533 164.831 C 1.255 164.831,-0.597 167.030,0.607 168.305 C 0.843 168.555,0.935 169.021,0.813 169.340 C 0.674 169.702,0.732 169.833,0.967 169.688 C 1.300 169.483,1.876 170.717,1.934 171.758 C 1.945 171.954,2.034 172.194,2.131 172.291 C 2.624 172.784,3.894 175.934,3.716 176.222 C 3.603 176.405,3.680 176.554,3.887 176.554 C 4.094 176.554,4.263 176.954,4.263 177.442 C 4.263 177.931,4.432 178.330,4.639 178.330 C 4.846 178.330,4.925 178.477,4.814 178.655 C 4.704 178.834,4.782 179.036,4.987 179.105 C 5.192 179.173,5.387 179.586,5.420 180.023 C 5.453 180.460,5.588 180.817,5.721 180.817 C 5.956 180.817,6.378 182.103,6.348 182.731 C 6.340 182.905,6.515 183.159,6.737 183.296 C 6.959 183.433,7.166 183.891,7.198 184.313 C 7.230 184.735,7.364 185.080,7.497 185.080 C 7.723 185.080,8.299 186.871,8.169 187.172 C 8.137 187.247,8.291 187.422,8.513 187.559 C 8.735 187.696,8.943 188.153,8.974 188.575 C 9.006 188.998,9.141 189.343,9.273 189.343 C 9.526 189.343,10.106 191.102,10.005 191.563 C 9.973 191.710,10.089 191.829,10.263 191.829 C 10.553 191.829,11.122 193.281,11.170 194.139 C 11.181 194.334,11.321 194.590,11.480 194.707 C 11.640 194.824,11.808 195.144,11.855 195.417 C 11.901 195.691,12.204 196.414,12.527 197.024 C 12.851 197.634,13.023 198.226,12.910 198.339 C 12.797 198.453,12.964 198.805,13.282 199.124 C 13.601 199.442,13.769 199.850,13.657 200.031 C 13.545 200.212,13.704 200.611,14.009 200.916 C 14.315 201.222,14.565 201.700,14.565 201.979 C 14.565 202.754,14.653 202.981,15.146 203.474 C 15.396 203.724,15.500 204.190,15.377 204.509 C 15.215 204.931,15.284 205.010,15.631 204.796 C 15.975 204.583,16.046 204.659,15.888 205.070 C 15.769 205.382,15.828 205.691,16.022 205.755 C 16.215 205.819,16.400 206.229,16.432 206.666 C 16.465 207.103,16.592 207.460,16.715 207.460 C 17.060 207.460,17.794 209.252,17.587 209.588 C 17.485 209.752,17.570 209.942,17.776 210.010 C 17.981 210.079,18.176 210.492,18.209 210.929 C 18.242 211.366,18.377 211.723,18.510 211.723 C 18.762 211.723,19.342 213.483,19.241 213.943 C 19.209 214.090,19.343 214.210,19.538 214.210 C 19.734 214.210,19.893 214.609,19.893 215.098 C 19.893 215.586,20.039 215.986,20.217 215.986 C 20.395 215.986,20.487 216.266,20.422 216.607 C 20.357 216.949,20.291 217.376,20.276 217.555 C 20.261 217.734,20.169 217.800,20.071 217.703 C 19.973 217.605,18.734 218.691,17.318 220.116 C 15.901 221.541,11.948 225.520,8.532 228.958 L 2.322 235.209 4.713 237.464 C 7.624 240.208,7.623 239.901,4.728 242.782 L 2.352 245.146 6.144 248.950 C 8.229 251.042,16.891 259.707,25.393 268.206 C 33.895 276.705,40.851 283.830,40.852 284.039 C 40.852 284.353,35.591 297.305,33.935 301.066 C 32.404 304.543,31.274 307.790,31.515 308.015 C 31.668 308.158,33.073 308.796,34.636 309.433 C 36.199 310.069,37.522 310.622,37.576 310.662 C 37.630 310.702,37.110 312.071,36.421 313.705 C 35.732 315.338,35.173 316.839,35.179 317.041 C 35.184 317.242,42.560 320.444,51.569 324.156 C 60.578 327.869,67.922 331.031,67.888 331.185 C 67.853 331.338,68.064 331.703,68.356 331.995 C 68.648 332.286,68.786 332.786,68.663 333.106 C 68.501 333.528,68.570 333.606,68.917 333.393 C 69.260 333.180,69.332 333.256,69.174 333.667 C 69.055 333.979,69.093 334.285,69.259 334.346 C 69.426 334.408,69.617 334.778,69.683 335.169 C 69.750 335.560,69.889 335.959,69.992 336.057 C 70.342 336.388,71.522 339.274,71.522 339.799 C 71.522 340.085,71.637 340.320,71.779 340.320 C 72.027 340.320,72.453 341.586,72.423 342.234 C 72.415 342.407,72.590 342.662,72.812 342.799 C 73.033 342.936,73.241 343.393,73.273 343.815 C 73.305 344.237,73.439 344.583,73.572 344.583 C 73.807 344.583,74.229 345.869,74.199 346.497 C 74.191 346.670,74.366 346.924,74.588 347.062 C 74.810 347.199,75.017 347.656,75.049 348.078 C 75.081 348.500,75.246 348.845,75.416 348.845 C 75.586 348.845,75.659 349.044,75.578 349.286 C 75.497 349.529,75.645 349.941,75.907 350.203 C 76.169 350.465,76.292 350.826,76.181 351.006 C 76.070 351.185,76.136 351.332,76.327 351.332 C 76.656 351.332,77.273 353.314,77.025 353.572 C 76.961 353.638,77.191 353.973,77.534 354.317 C 77.878 354.661,78.068 355.089,77.957 355.268 C 77.846 355.448,77.908 355.595,78.093 355.595 C 78.439 355.595,79.042 357.290,78.903 357.872 C 78.860 358.049,79.005 358.305,79.223 358.440 C 79.442 358.575,79.659 358.909,79.706 359.183 C 79.752 359.457,80.039 360.160,80.344 360.746 C 80.648 361.332,80.826 362.012,80.739 362.256 C 80.652 362.500,80.736 362.700,80.927 362.700 C 81.231 362.700,81.594 363.598,81.715 364.654 C 81.789 365.296,82.748 365.579,83.496 365.179 C 85.588 364.059,89.206 362.791,89.035 363.237 C 88.933 363.503,89.008 363.772,89.201 363.837 C 89.394 363.901,89.579 364.311,89.612 364.748 C 89.645 365.184,89.780 365.542,89.913 365.542 C 90.165 365.542,90.745 367.301,90.644 367.762 C 90.612 367.909,90.727 368.028,90.900 368.028 C 91.073 368.028,91.296 368.343,91.396 368.727 C 91.575 369.411,91.620 369.409,93.658 368.597 C 96.612 367.421,101.940 365.224,103.197 364.664 C 106.779 363.067,106.855 363.055,113.631 363.057 L 120.249 363.060 137.293 380.109 C 146.667 389.486,154.471 397.158,154.636 397.158 C 154.801 397.158,155.973 396.116,157.241 394.841 C 159.844 392.225,159.575 392.205,162.496 395.251 L 164.621 397.466 173.966 388.165 C 179.106 383.049,183.509 378.912,183.752 378.972 C 184.125 379.064,227.910 397.127,232.187 398.953 L 233.646 399.576 234.981 396.272 L 236.316 392.969 238.851 394.028 C 240.245 394.610,241.728 395.222,242.146 395.388 C 242.859 395.671,243.081 395.272,245.659 389.053 C 249.681 379.350,250.403 377.616,251.162 375.844 C 251.539 374.964,252.865 371.767,254.110 368.739 L 256.373 363.233 281.295 363.141 L 306.217 363.050 306.217 359.500 L 306.217 355.950 309.947 355.950 L 313.677 355.950 313.677 316.732 L 313.677 277.513 318.561 275.466 C 321.248 274.340,325.092 272.725,327.103 271.878 C 329.114 271.031,330.842 270.337,330.941 270.337 C 331.041 270.337,331.826 270.017,332.685 269.626 C 333.545 269.234,335.574 268.372,337.195 267.711 C 338.816 267.049,341.741 265.841,343.694 265.025 C 345.648 264.210,348.845 262.902,350.799 262.118 C 352.753 261.334,354.831 260.480,355.417 260.220 C 356.004 259.961,357.522 259.323,358.792 258.804 C 360.062 258.285,361.581 257.643,362.167 257.378 C 362.753 257.113,365.044 256.160,367.258 255.261 C 373.127 252.877,375.532 251.881,376.732 251.339 C 377.318 251.073,379.076 250.356,380.639 249.745 C 382.202 249.134,383.961 248.416,384.547 248.151 C 385.133 247.885,387.611 246.848,390.053 245.847 C 392.496 244.845,394.853 243.875,395.293 243.690 C 396.356 243.244,396.309 242.792,394.866 239.535 L 393.640 236.767 394.955 236.157 C 395.678 235.821,397.109 235.202,398.135 234.781 C 400.479 233.819,400.882 235.447,394.515 220.126 C 385.741 199.013,379.371 183.591,379.292 183.270 C 379.196 182.881,397.086 164.878,397.328 165.120 C 397.430 165.222,397.513 165.077,397.513 164.798 C 397.513 164.520,396.478 163.254,395.212 161.986 C 392.416 159.184,392.417 159.625,395.204 156.851 C 396.474 155.588,397.513 154.483,397.513 154.397 C 397.513 154.311,388.828 145.553,378.213 134.935 L 358.912 115.631 362.014 108.171 C 363.721 104.067,365.284 100.311,365.489 99.822 C 365.694 99.334,366.040 98.457,366.258 97.874 C 366.475 97.291,366.873 96.332,367.141 95.742 C 367.928 94.014,368.739 91.941,368.739 91.657 C 368.739 91.512,367.311 90.795,365.565 90.063 C 361.993 88.565,362.170 89.114,363.919 84.958 C 364.441 83.718,364.813 82.540,364.746 82.338 C 364.679 82.137,357.204 78.903,348.134 75.152 L 331.645 68.332 329.206 62.496 C 326.573 56.196,324.947 52.267,320.578 41.652 C 317.832 34.978,317.126 33.899,316.337 35.175 C 316.215 35.373,315.977 35.450,315.808 35.346 C 315.640 35.242,315.400 35.322,315.275 35.524 C 315.151 35.726,314.900 35.799,314.718 35.686 C 314.536 35.574,314.387 35.651,314.387 35.858 C 314.387 36.065,314.227 36.234,314.032 36.234 C 313.837 36.234,313.677 35.675,313.677 34.991 L 313.677 33.748 311.634 33.746 L 309.591 33.745 308.922 32.116 C 308.553 31.220,308.153 30.640,308.033 30.826 C 307.030 32.386,306.217 31.637,306.217 29.154 L 306.217 26.643 288.065 26.643 L 269.914 26.643 257.657 14.381 L 245.399 2.119 242.880 4.624 L 240.360 7.129 237.832 4.617 L 235.304 2.106 234.082 3.319 C 233.410 3.986,232.601 4.831,232.284 5.197 C 231.968 5.562,228.335 9.203,224.212 13.287 L 216.715 20.714 191.705 10.357 C 177.950 4.661,166.619 -0.000,166.524 -0.000 C 166.430 -0.000,165.753 1.449,165.019 3.220 M187.904 16.674 C 200.691 21.974,211.228 26.385,211.320 26.477 C 211.411 26.568,198.919 26.643,183.558 26.643 L 155.630 26.643 157.941 21.048 C 159.212 17.971,161.064 13.486,162.056 11.081 C 163.113 8.518,164.024 6.777,164.257 6.874 C 164.475 6.964,175.116 11.374,187.904 16.674 M250.089 17.229 L 259.498 26.643 245.113 26.646 L 230.728 26.649 227.445 25.314 L 224.161 23.979 232.238 15.897 C 236.680 11.452,240.396 7.815,240.497 7.815 C 240.598 7.815,244.914 12.052,250.089 17.229 M306.217 194.849 L 306.217 355.950 201.263 355.950 L 96.309 355.950 96.201 357.591 L 96.092 359.231 92.621 360.662 C 90.712 361.449,89.101 362.030,89.040 361.952 C 88.790 361.635,77.896 335.161,77.977 335.065 C 78.024 335.008,80.559 335.968,83.608 337.197 L 89.152 339.432 89.159 347.691 L 89.165 355.950 92.718 355.950 L 96.270 355.950 96.270 194.849 L 96.270 33.748 201.243 33.748 L 306.217 33.748 306.217 194.849 M317.935 55.172 C 319.933 60.019,321.511 64.042,321.441 64.111 C 321.372 64.180,319.596 63.514,317.496 62.632 L 313.677 61.028 313.688 53.161 C 313.694 48.655,313.827 45.521,314.000 45.826 C 314.166 46.119,315.937 50.325,317.935 55.172 M117.229 51.155 L 117.229 54.707 113.677 54.707 L 110.124 54.707 110.124 68.739 L 110.124 82.771 113.677 82.771 L 117.229 82.771 117.229 75.666 L 117.229 68.561 120.782 68.561 L 124.334 68.561 124.334 75.666 L 124.334 82.771 127.709 82.771 L 131.083 82.771 131.083 68.739 L 131.083 54.707 127.709 54.707 L 124.334 54.707 124.334 51.155 L 124.334 47.602 120.782 47.602 L 117.229 47.602 117.229 51.155 M124.334 58.259 L 124.334 61.812 120.782 61.812 L 117.229 61.812 117.229 58.259 L 117.229 54.707 120.782 54.707 L 124.334 54.707 124.334 58.259 M337.737 78.731 C 350.783 84.129,361.573 88.650,361.716 88.777 C 361.858 88.904,351.203 115.014,338.038 146.798 C 324.873 178.582,314.019 204.794,313.917 205.047 C 313.816 205.299,313.720 174.774,313.705 137.211 C 313.689 99.649,313.753 68.917,313.847 68.917 C 313.941 68.917,324.691 73.333,337.737 78.731 M197.869 122.913 L 197.869 124.689 196.092 124.689 L 194.316 124.689 194.316 126.465 L 194.316 128.242 192.540 128.242 L 190.764 128.242 190.764 130.018 L 190.764 131.794 188.988 131.794 L 187.211 131.794 187.211 133.570 L 187.211 135.346 185.435 135.346 L 183.659 135.346 183.659 137.123 L 183.659 138.899 181.883 138.899 L 180.107 138.899 180.107 140.497 L 180.107 142.096 178.508 142.096 L 176.909 142.096 176.909 143.872 L 176.909 145.648 175.133 145.648 L 173.357 145.648 173.357 147.425 L 173.357 149.201 171.581 149.201 L 169.805 149.201 169.805 150.977 L 169.805 152.753 168.028 152.753 L 166.252 152.753 166.252 154.529 L 166.252 156.306 164.476 156.306 L 162.700 156.306 162.700 158.082 L 162.700 159.858 160.924 159.858 L 159.147 159.858 159.147 161.634 L 159.147 163.410 157.371 163.410 L 155.595 163.410 155.595 165.187 L 155.595 166.963 153.996 166.963 L 152.398 166.963 152.398 168.561 L 152.398 170.160 150.622 170.160 L 148.845 170.160 148.845 171.936 L 148.845 173.712 147.069 173.712 L 145.293 173.712 145.293 175.488 L 145.293 177.265 143.517 177.265 L 141.741 177.265 141.741 180.817 L 141.741 184.369 139.964 184.369 L 138.188 184.369 138.188 196.625 L 138.188 208.881 139.964 208.881 L 141.741 208.881 141.741 212.433 L 141.741 215.986 143.517 215.986 L 145.293 215.986 145.293 217.584 L 145.293 219.183 147.069 219.183 L 148.845 219.183 148.845 220.959 L 148.845 222.735 152.220 222.735 L 155.595 222.735 155.595 224.512 L 155.595 226.288 159.147 226.288 L 162.700 226.288 162.700 228.064 L 162.700 229.840 174.956 229.840 L 187.211 229.840 187.211 228.064 L 187.211 226.288 190.764 226.288 L 194.316 226.288 194.316 224.512 L 194.316 222.735 196.092 222.735 L 197.869 222.735 197.869 236.767 L 197.869 250.799 196.092 250.799 L 194.316 250.799 194.316 254.352 L 194.316 257.904 192.540 257.904 L 190.764 257.904 190.764 259.680 L 190.764 261.456 188.988 261.456 L 187.211 261.456 187.211 263.233 L 187.211 265.009 185.435 265.009 L 183.659 265.009 183.659 266.607 L 183.659 268.206 180.284 268.206 L 176.909 268.206 176.909 269.982 L 176.909 271.758 201.421 271.758 L 225.933 271.758 225.933 269.982 L 225.933 268.206 222.380 268.206 L 218.828 268.206 218.828 266.607 L 218.828 265.009 217.052 265.009 L 215.275 265.009 215.275 263.233 L 215.275 261.456 213.499 261.456 L 211.723 261.456 211.723 259.680 L 211.723 257.904 209.947 257.904 L 208.171 257.904 208.171 254.352 L 208.171 250.799 206.394 250.799 L 204.618 250.799 204.618 236.767 L 204.618 222.735 206.394 222.735 L 208.171 222.735 208.171 224.512 L 208.171 226.288 211.723 226.288 L 215.275 226.288 215.275 228.064 L 215.275 229.840 227.531 229.840 L 239.787 229.840 239.787 228.064 L 239.787 226.288 243.339 226.288 L 246.892 226.288 246.892 224.512 L 246.892 222.735 250.444 222.735 L 253.996 222.735 253.996 220.959 L 253.996 219.183 255.595 219.183 L 257.194 219.183 257.194 217.584 L 257.194 215.986 258.970 215.986 L 260.746 215.986 260.746 212.433 L 260.746 208.881 262.522 208.881 L 264.298 208.881 264.298 196.625 L 264.298 184.369 262.522 184.369 L 260.746 184.369 260.746 180.817 L 260.746 177.265 258.970 177.265 L 257.194 177.265 257.194 175.488 L 257.194 173.712 255.595 173.712 L 253.996 173.712 253.996 171.936 L 253.996 170.160 252.220 170.160 L 250.444 170.160 250.444 168.561 L 250.444 166.963 248.668 166.963 L 246.892 166.963 246.892 165.187 L 246.892 163.410 245.115 163.410 L 243.339 163.410 243.339 161.634 L 243.339 159.858 241.563 159.858 L 239.787 159.858 239.787 158.082 L 239.787 156.306 238.011 156.306 L 236.234 156.306 236.234 154.529 L 236.234 152.753 234.458 152.753 L 232.682 152.753 232.682 150.977 L 232.682 149.201 231.083 149.201 L 229.485 149.201 229.485 147.425 L 229.485 145.648 227.709 145.648 L 225.933 145.648 225.933 143.872 L 225.933 142.096 224.156 142.096 L 222.380 142.096 222.380 140.497 L 222.380 138.899 220.604 138.899 L 218.828 138.899 218.828 137.123 L 218.828 135.346 217.052 135.346 L 215.275 135.346 215.275 133.570 L 215.275 131.794 213.499 131.794 L 211.723 131.794 211.723 130.018 L 211.723 128.242 209.947 128.242 L 208.171 128.242 208.171 126.465 L 208.171 124.689 206.394 124.689 L 204.618 124.689 204.618 122.913 L 204.618 121.137 201.243 121.137 L 197.869 121.137 197.869 122.913 M353.020 198.490 L 313.854 237.658 313.754 230.996 C 313.658 224.605,313.689 224.247,314.531 222.202 C 317.741 214.407,329.395 186.284,332.004 180.034 C 333.449 176.575,335.733 171.060,337.080 167.778 C 341.222 157.686,351.127 133.776,354.022 126.880 L 355.712 122.854 373.948 141.089 L 392.185 159.323 353.020 198.490 M89.165 139.404 L 89.165 148.791 58.122 179.901 C 41.049 197.013,26.941 211.011,26.772 211.009 C 26.528 211.006,7.829 166.480,7.231 164.476 C 7.061 163.906,9.586 162.774,27.353 155.456 C 41.772 149.517,47.517 147.141,51.510 145.464 C 53.561 144.603,59.956 141.949,65.719 139.567 C 71.483 137.185,78.996 134.073,82.416 132.653 C 85.835 131.232,88.752 130.058,88.899 130.044 C 89.045 130.029,89.165 134.242,89.165 139.404 M83.698 181.658 C 72.242 209.191,62.005 233.903,56.786 246.622 C 55.444 249.893,52.728 256.447,50.752 261.187 C 48.775 265.927,46.605 271.163,45.928 272.824 C 45.252 274.485,44.569 275.980,44.410 276.146 C 44.251 276.312,35.970 268.319,26.009 258.384 L 7.898 240.320 48.443 199.732 L 88.988 159.144 89.087 163.806 L 89.186 168.467 83.698 181.658 M89.078 295.702 L 88.988 331.724 63.588 321.220 C 49.618 315.443,38.149 310.690,38.100 310.658 C 38.004 310.594,40.766 303.782,44.970 293.710 C 46.463 290.136,49.200 283.535,51.054 279.041 C 52.907 274.547,55.353 268.632,56.489 265.897 C 58.922 260.039,67.395 239.599,79.955 209.286 L 88.988 187.488 89.078 223.584 C 89.128 243.437,89.128 275.890,89.078 295.702 M382.907 211.989 C 388.241 224.836,392.630 235.556,392.661 235.812 C 392.696 236.096,390.574 237.172,387.211 238.575 C 384.183 239.840,380.986 241.184,380.107 241.563 C 379.227 241.943,376.510 243.067,374.067 244.061 C 371.625 245.056,369.307 246.017,368.917 246.198 C 368.526 246.379,364.290 248.144,359.503 250.119 C 354.716 252.094,348.881 254.505,346.536 255.476 C 344.192 256.448,340.595 257.933,338.544 258.777 C 333.658 260.786,327.325 263.412,320.024 266.454 C 316.775 267.809,314.017 268.917,313.896 268.917 C 313.776 268.917,313.677 264.173,313.677 258.376 L 313.677 247.835 343.250 218.244 C 359.516 201.968,372.911 188.648,373.017 188.642 C 373.123 188.637,377.574 199.143,382.907 211.989 M271.403 320.959 L 271.403 334.991 274.956 334.991 L 278.508 334.991 278.508 338.544 L 278.508 342.096 281.883 342.096 L 285.258 342.096 285.258 338.544 L 285.258 334.991 288.810 334.991 L 292.362 334.991 292.362 320.959 L 292.362 306.927 288.810 306.927 L 285.258 306.927 285.258 313.854 L 285.258 320.782 281.883 320.782 L 278.508 320.782 278.508 313.854 L 278.508 306.927 274.956 306.927 L 271.403 306.927 271.403 320.959 M285.258 331.439 L 285.258 334.991 281.883 334.991 L 278.508 334.991 278.508 331.439 L 278.508 327.886 281.883 327.886 L 285.258 327.886 285.258 331.439 M149.833 364.636 C 151.928 365.505,158.517 368.239,164.476 370.711 C 170.435 373.182,175.427 375.313,175.570 375.445 C 175.712 375.578,172.170 379.343,167.698 383.812 L 159.568 391.936 145.158 377.496 L 130.748 363.055 138.387 363.055 L 146.025 363.055 149.833 364.636 M248.313 363.237 C 248.313 363.581,236.494 392.008,236.228 392.304 C 236.017 392.537,167.621 364.547,165.542 363.377 C 165.249 363.212,183.752 363.072,206.661 363.066 C 229.569 363.060,248.313 363.137,248.313 363.237 " stroke="none" fill="#050404" fill-rule="evenodd"></path><path id="path2" d="M162.056 11.081 C 161.064 13.486,159.212 17.971,157.941 21.048 L 155.630 26.643 183.558 26.643 C 198.919 26.643,211.411 26.568,211.320 26.477 C 211.197 26.353,185.257 15.549,164.257 6.874 C 164.024 6.777,163.113 8.518,162.056 11.081 M232.238 15.897 L 224.161 23.979 227.445 25.314 L 230.728 26.649 245.113 26.646 L 259.498 26.643 250.089 17.229 C 244.914 12.052,240.598 7.815,240.497 7.815 C 240.396 7.815,236.680 11.452,232.238 15.897 M313.688 53.161 L 313.677 61.028 317.496 62.632 C 319.596 63.514,321.372 64.180,321.441 64.111 C 321.564 63.989,314.611 46.904,314.000 45.826 C 313.827 45.521,313.694 48.655,313.688 53.161 M313.705 137.211 C 313.720 174.774,313.816 205.299,313.917 205.047 C 314.019 204.794,324.873 178.582,338.038 146.798 C 351.203 115.014,361.858 88.904,361.716 88.777 C 361.450 88.539,314.154 68.917,313.847 68.917 C 313.753 68.917,313.689 99.649,313.705 137.211 M354.022 126.880 C 351.127 133.776,341.222 157.686,337.080 167.778 C 335.733 171.060,333.449 176.575,332.004 180.034 C 329.395 186.284,317.741 214.407,314.531 222.202 C 313.689 224.247,313.658 224.605,313.754 230.996 L 313.854 237.658 353.020 198.490 L 392.185 159.323 373.948 141.089 L 355.712 122.854 354.022 126.880 M82.416 132.653 C 78.996 134.073,71.483 137.185,65.719 139.567 C 59.956 141.949,53.561 144.603,51.510 145.464 C 47.517 147.141,41.772 149.517,27.353 155.456 C 9.586 162.774,7.061 163.906,7.231 164.476 C 7.829 166.480,26.528 211.006,26.772 211.009 C 26.941 211.011,41.049 197.013,58.122 179.901 L 89.165 148.791 89.165 139.404 C 89.165 134.242,89.045 130.029,88.899 130.044 C 88.752 130.058,85.835 131.232,82.416 132.653 M48.443 199.732 L 7.898 240.320 26.009 258.384 C 35.970 268.319,44.251 276.312,44.410 276.146 C 44.569 275.980,45.252 274.485,45.928 272.824 C 46.605 271.163,48.775 265.927,50.752 261.187 C 52.728 256.447,55.444 249.893,56.786 246.622 C 62.005 233.903,72.242 209.191,83.698 181.658 L 89.186 168.467 89.087 163.806 L 88.988 159.144 48.443 199.732 M79.955 209.286 C 67.395 239.599,58.922 260.039,56.489 265.897 C 55.353 268.632,52.907 274.547,51.054 279.041 C 49.200 283.535,46.463 290.136,44.970 293.710 C 40.766 303.782,38.004 310.594,38.100 310.658 C 38.149 310.690,49.618 315.443,63.588 321.220 L 88.988 331.724 89.078 295.702 C 89.128 275.890,89.128 243.437,89.078 223.584 L 88.988 187.488 79.955 209.286 M343.250 218.244 L 313.677 247.835 313.677 258.376 C 313.677 264.173,313.776 268.917,313.896 268.917 C 314.017 268.917,316.775 267.809,320.024 266.454 C 327.325 263.412,333.658 260.786,338.544 258.777 C 340.595 257.933,344.192 256.448,346.536 255.476 C 348.881 254.505,354.716 252.094,359.503 250.119 C 364.290 248.144,368.526 246.379,368.917 246.198 C 369.307 246.017,371.625 245.056,374.067 244.061 C 376.510 243.067,379.227 241.943,380.107 241.563 C 380.986 241.184,384.183 239.840,387.211 238.575 C 390.574 237.172,392.696 236.096,392.661 235.812 C 392.572 235.072,373.231 188.631,373.017 188.642 C 372.911 188.648,359.516 201.968,343.250 218.244 M79.773 339.661 C 80.855 342.270,83.359 348.321,85.335 353.108 C 87.312 357.895,88.979 361.875,89.040 361.952 C 89.101 362.030,90.712 361.449,92.621 360.662 L 96.092 359.231 96.201 357.591 L 96.309 355.950 92.737 355.950 L 89.165 355.950 89.158 347.691 L 89.152 339.432 84.096 337.403 C 81.316 336.287,78.763 335.271,78.422 335.146 C 77.944 334.969,78.248 335.989,79.773 339.661 M145.158 377.496 L 159.568 391.936 167.698 383.812 C 172.170 379.343,175.712 375.578,175.570 375.445 C 175.427 375.313,170.435 373.182,164.476 370.711 C 158.517 368.239,151.928 365.505,149.833 364.636 L 146.025 363.055 138.387 363.055 L 130.748 363.055 145.158 377.496 M165.542 363.377 C 167.621 364.547,236.017 392.537,236.228 392.304 C 236.494 392.008,248.313 363.581,248.313 363.237 C 248.313 363.137,229.569 363.060,206.661 363.066 C 183.752 363.072,165.249 363.212,165.542 363.377 " stroke="none" fill="#a50404" fill-rule="evenodd"></path><path id="path3" d="" stroke="none" fill="#bcbc100" fill-rule="evenodd"></path><path id="path4" d="" stroke="none" fill="#bcbc100" fill-rule="evenodd"></path></g></svg>